<svg xmlns="http://www.w3.org/2000/svg" viewBox="0 0 180 180" width="512" height="512">
  <defs>
    <clipPath id="lensClip">
      <circle cx="120" cy="108" r="27"/>
    </clipPath>
  </defs>

  <rect x="0" y="0" width="180" height="180" rx="36" fill="#FBF3EC"/>

  <rect x="44" y="32" width="74" height="96" rx="6" fill="#FFFFFF" stroke="#D8C7B2" stroke-width="2"/>
  <rect x="56" y="22" width="74" height="96" rx="6" fill="#FFFFFF" stroke="#D8C7B2" stroke-width="2"/>

  <rect x="68" y="40" width="50" height="7" rx="2" fill="#C9412A"/>
  <rect x="68" y="56" width="46" height="3" fill="#D8DEE8"/>
  <rect x="68" y="64" width="46" height="3" fill="#D8DEE8"/>
  <rect x="68" y="72" width="38" height="3" fill="#D8DEE8"/>
  <rect x="68" y="80" width="46" height="3" fill="#D8DEE8"/>
  <rect x="68" y="88" width="30" height="3" fill="#D8DEE8"/>
  <rect x="68" y="96" width="46" height="3" fill="#D8DEE8"/>
  <rect x="68" y="104" width="20" height="3" fill="#D8DEE8"/>

  <g clip-path="url(#lensClip)">
    <circle cx="120" cy="108" r="27" fill="#FCFAF6"/>
    <rect x="102" y="97" width="36" height="9" rx="2" fill="#2E3A59"/>
    <rect x="102" y="112" width="26" height="9" rx="2" fill="#C9412A"/>
  </g>

  <circle cx="120" cy="108" r="27" fill="none" stroke="#2E3A59" stroke-width="9"/>
  <line x1="139" y1="127" x2="161" y2="149" stroke="#2E3A59" stroke-width="10" stroke-linecap="round"/>
</svg>
