<svg viewBox="0 0 120 120" xmlns="http://www.w3.org/2000/svg" role="img" aria-label="ExamPool 아이콘 — 미색 시험지가 물에 떠다니고 한 장이 다이빙하는 모습">
  <rect width="120" height="120" fill="#d8ecfd"/>

  <g transform="rotate(-11 38 72)">
    <rect x="25" y="57" width="27" height="31" rx="2.5" fill="#f6f1e3" stroke="#ddd3ba" stroke-width="1.3"/>
    <path d="M45 57 L52 64 L45 64 Z" fill="#e6dcc4"/>
    <line x1="29" y1="63" x2="48" y2="63" stroke="#57544d" stroke-width="1.6"/>
    <rect x="29" y="68" width="19" height="11" rx="1.5" fill="#fffdf7" stroke="#a79f8c" stroke-width="1.2"/>
  </g>

  <g transform="rotate(12 79 74)">
    <rect x="66" y="60" width="25" height="29" rx="2.5" fill="#f6f1e3" stroke="#ddd3ba" stroke-width="1.3"/>
    <path d="M84 60 L91 67 L84 67 Z" fill="#e6dcc4"/>
    <line x1="70" y1="66" x2="87" y2="66" stroke="#57544d" stroke-width="1.6"/>
    <rect x="70" y="71" width="17" height="10" rx="1.5" fill="#fffdf7" stroke="#a79f8c" stroke-width="1.2"/>
  </g>

  <path d="M0 80 q15 -7 30 0 t30 0 t30 0 t30 0 v40 h-120 Z" fill="#2f7fce" fill-opacity="0.86"/>
  <path d="M0 80 q15 -7 30 0 t30 0 t30 0 t30 0" fill="none" stroke="#7fb8ec" stroke-width="2.5" stroke-linecap="round"/>

  <g transform="rotate(34 73 36)">
    <rect x="58" y="14" width="30" height="39" rx="3" fill="#f6f1e3" stroke="#ddd3ba" stroke-width="1.4"/>
    <path d="M81 14 L88 21 L81 21 Z" fill="#e6dcc4"/>
    <line x1="62" y1="21" x2="84" y2="21" stroke="#57544d" stroke-width="1.9"/>
    <rect x="62" y="26" width="22" height="13" rx="2" fill="#fffdf7" stroke="#a79f8c" stroke-width="1.3"/>
    <line x1="62" y1="45" x2="80" y2="45" stroke="#8a867c" stroke-width="1.6"/>
  </g>

  <circle cx="82" cy="76" r="4" fill="#bfe0fb"/>
  <circle cx="90" cy="70" r="2.8" fill="#bfe0fb"/>
  <circle cx="86" cy="66" r="2" fill="#eaf6ff"/>
</svg>
