<svg xmlns="http://www.w3.org/2000/svg" viewBox="0 0 96 96" role="img" aria-label="5E">
  <defs>
    <radialGradient id="bg" cx="50%" cy="60%" r="72%">
      <stop offset="0%" stop-color="#1f5fc4"/>
      <stop offset="66%" stop-color="#08142e"/>
    </radialGradient>
  </defs>
  <rect width="96" height="96" rx="20" fill="url(#bg)"/>
  <!-- "5E" 는 글자가 아니라 벡터 패스다. 텍스트로 두면 Georgia 가 없는 기기에서
       다른 폰트로 대체돼 아이콘 모양이 완전히 달라진다.
       원본: Georgia Bold Italic 54px / 재생성: python tools/trace-logo-text.py -->
  <path d="M24.72 77.5Q19.5 77.5 15.92 75.21Q12.35 72.91 12.35 69.75Q12.35 67.88 13.55 66.58Q14.75 65.29 16.75 65.29Q18.84 65.29 20.11 66.46Q21.39 67.64 21.39 69.51Q21.39 70.83 20.95 72.31Q20.5 73.78 20.21 74.6Q20.66 74.73 21.71 74.9Q22.76 75.07 23.79 75.07Q25.14 75.07 26.72 74.22Q28.3 73.36 29.59 71.75Q30.99 70.01 31.83 67.85Q32.68 65.69 32.68 62.5Q32.68 59.52 31.18 57.76Q29.67 56.01 26.93 56.01Q25.59 56.01 24.54 56.35Q23.5 56.7 22.53 57.25Q21.53 57.83 20.81 58.38Q20.1 58.94 19.31 59.75L17.36 59.04L24.11 39.37H46.39L44.73 46.62H24.58L21.71 55.51Q24.16 54.06 26.19 53.44Q28.22 52.82 30.62 52.82Q32.76 52.82 34.74 53.25Q36.71 53.69 38.56 54.9Q40.35 56.09 41.43 57.94Q42.51 59.78 42.51 62.39Q42.51 68.75 37.28 73.12Q32.05 77.5 24.72 77.5ZM85.78 30.35 83.59 39.9H81.59Q81.22 37.39 79.81 35.3Q78.4 33.2 76.84 32.86Q76.11 32.68 74.71 32.64Q73.31 32.6 72.39 32.6H67.22L63.84 47.23H67.43Q69.41 47.23 70.53 46.79Q71.65 46.36 72.62 45.57Q73.36 44.96 74.35 43.39Q75.34 41.82 75.76 40.72H77.77L74.15 56.33H72.15V55.35Q72.15 54.16 71.9 52.91Q71.65 51.66 71.31 51.16Q70.62 50.16 69.49 49.83Q68.35 49.5 66.9 49.5H63.32L60.92 59.91Q60.73 60.7 60.58 61.63Q60.42 62.55 60.42 62.94Q60.42 64.63 61.52 65.07Q62.63 65.5 65.61 65.5Q69.41 65.5 71.15 65.17Q72.89 64.84 73.76 64.16Q75.34 62.84 77.56 60.12Q79.77 57.41 80.56 56.12H82.49L79.08 67.77H44.25L44.7 65.85Q45.36 65.82 46.67 65.67Q47.97 65.53 48.6 65.32Q49.63 64.98 50.17 64.26Q50.71 63.55 50.92 62.63L56.96 36.47Q57.09 35.92 57.15 35.55Q57.2 35.18 57.2 35Q57.2 33.89 56.08 33.27Q54.96 32.65 52.43 32.28L52.88 30.35Z" fill="#f5f8ff"/>
</svg>
