<svg xmlns="http://www.w3.org/2000/svg" viewBox="0 0 96 96" role="img" aria-label="hwp_palette — 붓이 초록 물감을 찍는 팔레트">
  <!-- 모든 도형은 수식(각도별 반지름·붓털 휨)으로 그린 뒤 경로로 구운 것.
       팔레트를 콩팥꼴로 파면 무게중심이 오른쪽으로 밀리므로, 실측(중심 x=55.5)해서
       전체를 x-7.5 y-2.3 옮겨 중앙(48,48)에 맞췄다. 좌표에 이미 반영돼 있다. -->
  <defs>
    <radialGradient id="bg" cx="50%" cy="58%" r="73%">
      <stop offset="0%" stop-color="#23366b"/><stop offset="100%" stop-color="#0b1128"/>
    </radialGradient>
    <linearGradient id="pal" x1="0.5" y1="17.7" x2="84.5" y2="81.7" gradientUnits="userSpaceOnUse">
      <stop offset="0" stop-color="#ffffff"/><stop offset="0.55" stop-color="#eceef1"/><stop offset="1" stop-color="#d7dbe1"/>
    </linearGradient>
    <linearGradient id="fer" x1="61.3" y1="60.5" x2="68.23" y2="67.43" gradientUnits="userSpaceOnUse">
      <stop offset="0" stop-color="#eef3fa"/><stop offset="0.4" stop-color="#ffffff"/>
      <stop offset="0.6" stop-color="#bcc7d9"/><stop offset="1" stop-color="#828fa5"/>
    </linearGradient>
    <clipPath id="clip"><rect width="96" height="96" rx="20"/></clipPath>
    <clipPath id="bcl"><path d="M62.5,61.7L62.92,61.58L63.35,61.48L63.78,61.38L64.21,61.29L64.65,61.2L65.09,61.11L65.52,61.02L65.97,60.93L66.41,60.84L66.85,60.75L67.29,60.66L67.74,60.56L68.18,60.47L68.62,60.37L69.07,60.27L69.51,60.17L69.95,60.06L70.4,59.95L70.84,59.83L71.28,59.71L71.71,59.59L72.15,59.46L72.58,59.32L73.01,59.18L73.44,59.02L73.86,58.87L74.28,58.7L74.7,58.53L75.11,58.35L75.51,58.17L75.92,57.97L76.31,57.77L76.7,57.56L77.09,57.34L77.47,57.11L77.84,56.87L78.21,56.63L78.57,56.38L78.93,56.12L79.27,55.85L79.61,55.57L79.95,55.29L80.27,55L80.59,54.7L80.91,54.39L81.21,54.08L81.51,53.75L81.8,53.43L75.3,46.92L75.01,47.17L74.73,47.41L74.45,47.66L74.18,47.92L73.91,48.18L73.64,48.44L73.37,48.7L73.11,48.97L72.85,49.24L72.59,49.52L72.34,49.8L72.08,50.09L71.83,50.38L71.59,50.67L71.34,50.97L71.1,51.27L70.85,51.58L70.61,51.89L70.37,52.2L70.13,52.52L69.89,52.84L69.65,53.17L69.41,53.5L69.17,53.83L68.93,54.16L68.69,54.5L68.45,54.84L68.2,55.18L67.95,55.52L67.7,55.87L67.45,56.21L67.19,56.55L66.94,56.9L66.67,57.24L66.41,57.58L66.14,57.92L65.86,58.26L65.58,58.6L65.3,58.93L65.01,59.26L64.72,59.59L64.42,59.91L64.12,60.23L63.81,60.54L63.49,60.84L63.17,61.14L62.84,61.43L62.5,61.7Z"/></clipPath>
    <clipPath id="hcl"><path d="M79.36,42.64L84.26,38.23L89.11,33.76L93.96,29.29L98.83,24.85L103.73,20.43L108.66,16.04L113.6,11.67L118.56,7.31L121.42,10.17L117.06,15.12L112.69,20.07L108.3,24.99L103.88,29.89L99.43,34.76L94.97,39.61L90.5,44.46L86.08,49.36Z"/></clipPath>
  </defs>
  <rect width="96" height="96" rx="20" fill="url(#bg)"/>
  <g clip-path="url(#clip)">
    <!-- 팔레트: 엄지 쪽이 파인 콩팥꼴 -->
    <path d="M84.51,38.29C86.92,43.34 85.97,49.66 84.85,55.23C83.73,60.8 82.3,67.44 77.77,71.68C73.24,75.92 64.71,79.49 57.69,80.66C50.67,81.83 41.61,80.84 35.67,78.7C29.73,76.56 24.7,71.66 22.07,67.85C19.44,64.04 21.42,59.51 19.88,55.84C18.34,52.17 14.3,50.11 12.85,45.83C11.4,41.55 8.84,34.84 11.18,30.18C13.52,25.52 20.31,20.26 26.87,17.84C33.43,15.42 43.27,14.48 50.52,15.66C57.77,16.84 64.72,21.15 70.39,24.92C76.06,28.69 82.1,33.24 84.51,38.29Z" fill="url(#pal)"/>
    <ellipse cx="27.5" cy="60.7" rx="6" ry="4.8" fill="#16223f" transform="rotate(-11.5 27.5 60.7)"/>
    <!-- 물감: 불규칙한 덩어리 -->
    <path d="M35.78,38.26C35.48,39.71 34.93,41.66 33.85,42.56C32.77,43.46 30.74,43.58 29.31,43.66C27.88,43.73 26.64,43.32 25.24,43.01C23.84,42.7 22.09,42.68 20.89,41.82C19.69,40.96 18.28,39.28 18.05,37.85C17.82,36.42 18.85,34.55 19.54,33.24C20.23,31.93 21.18,30.93 22.19,29.96C23.2,28.99 24.28,27.91 25.62,27.41C26.96,26.91 28.92,26.45 30.21,26.93C31.5,27.41 32.46,29.12 33.36,30.27C34.26,31.42 35.22,32.52 35.62,33.85C36.02,35.18 36.08,36.81 35.78,38.26Z" fill="#2f6fd0"/>
    <path d="M55.07,39.68C53.79,40.46 51.54,40.36 50.01,40.05C48.48,39.73 47.12,38.68 45.89,37.79C44.66,36.9 43.49,35.97 42.64,34.7C41.79,33.43 40.94,31.8 40.79,30.19C40.64,28.58 40.81,26.26 41.75,25.01C42.69,23.76 44.89,23.08 46.42,22.68C47.95,22.28 49.47,22.48 50.93,22.61C52.39,22.74 53.87,22.83 55.21,23.46C56.55,24.09 58.26,25.08 59,26.37C59.74,27.66 59.89,29.68 59.67,31.18C59.45,32.68 58.44,33.94 57.67,35.36C56.9,36.78 56.35,38.9 55.07,39.68Z" fill="#f2a81d"/>
    <path d="M67.7,48.81C66.58,48.32 65.31,47.89 64.45,47C63.59,46.11 62.63,44.66 62.56,43.45C62.49,42.24 63.31,40.73 64.01,39.73C64.71,38.73 65.8,38.08 66.77,37.45C67.74,36.82 68.71,36.21 69.86,35.94C71.01,35.67 72.5,35.45 73.65,35.83C74.8,36.21 76.2,37.2 76.78,38.24C77.36,39.28 77.21,40.89 77.12,42.07C77.03,43.25 76.66,44.26 76.23,45.32C75.8,46.38 75.4,47.64 74.56,48.41C73.72,49.18 72.33,49.88 71.19,49.95C70.05,50.02 68.82,49.3 67.7,48.81Z" fill="#c0442a"/>
    <path d="M68.9,68.29C67.74,69.21 65.96,69.63 64.54,69.78C63.12,69.94 61.75,69.56 60.37,69.22C58.99,68.88 57.46,68.6 56.28,67.74C55.1,66.88 53.67,65.44 53.27,64.03C52.88,62.62 53.3,60.6 53.91,59.26C54.52,57.92 55.84,56.92 56.93,55.97C58.02,55.02 59.1,54.03 60.44,53.54C61.78,53.05 63.64,52.62 64.96,53.03C66.28,53.44 67.39,54.91 68.35,56.01C69.31,57.11 70.21,58.25 70.74,59.62C71.27,60.99 71.81,62.8 71.5,64.25C71.19,65.7 70.06,67.37 68.9,68.29Z" fill="#7cb342"/>
    <!-- 문지른 자국 -->
    <path transform="translate(42.5,54.7) rotate(16.04)"
          d="M-9,-11 C-4,-6 3,-8 7,-3 C10,1 6,7 2,10 C-1,12 -6,10 -7,6 C-9,2 -12,-6 -9,-11 Z" fill="#f5b62b"/>
    <!-- 붓: 초록을 찍고 눌려 휘었다 -->
    <path d="M62.5,61.7L62.92,61.58L63.35,61.48L63.78,61.38L64.21,61.29L64.65,61.2L65.09,61.11L65.52,61.02L65.97,60.93L66.41,60.84L66.85,60.75L67.29,60.66L67.74,60.56L68.18,60.47L68.62,60.37L69.07,60.27L69.51,60.17L69.95,60.06L70.4,59.95L70.84,59.83L71.28,59.71L71.71,59.59L72.15,59.46L72.58,59.32L73.01,59.18L73.44,59.02L73.86,58.87L74.28,58.7L74.7,58.53L75.11,58.35L75.51,58.17L75.92,57.97L76.31,57.77L76.7,57.56L77.09,57.34L77.47,57.11L77.84,56.87L78.21,56.63L78.57,56.38L78.93,56.12L79.27,55.85L79.61,55.57L79.95,55.29L80.27,55L80.59,54.7L80.91,54.39L81.21,54.08L81.51,53.75L81.8,53.43L75.3,46.92L75.01,47.17L74.73,47.41L74.45,47.66L74.18,47.92L73.91,48.18L73.64,48.44L73.37,48.7L73.11,48.97L72.85,49.24L72.59,49.52L72.34,49.8L72.08,50.09L71.83,50.38L71.59,50.67L71.34,50.97L71.1,51.27L70.85,51.58L70.61,51.89L70.37,52.2L70.13,52.52L69.89,52.84L69.65,53.17L69.41,53.5L69.17,53.83L68.93,54.16L68.69,54.5L68.45,54.84L68.2,55.18L67.95,55.52L67.7,55.87L67.45,56.21L67.19,56.55L66.94,56.9L66.67,57.24L66.41,57.58L66.14,57.92L65.86,58.26L65.58,58.6L65.3,58.93L65.01,59.26L64.72,59.59L64.42,59.91L64.12,60.23L63.81,60.54L63.49,60.84L63.17,61.14L62.84,61.43L62.5,61.7Z" fill="#333e57"/>
    <g clip-path="url(#bcl)">
      <path d="M62.5,61.7L62.86,61.46L63.21,61.21L63.55,60.95L63.89,60.69L64.22,60.42L64.56,60.15L64.88,59.87L65.2,59.59L65.52,59.31L65.84,59.03L66.15,58.74L66.46,58.45L66.76,58.16L67.06,57.87L67.36,57.57L67.66,57.28L67.95,56.98L68.24,56.68L68.53,56.39L68.82,56.09L69.1,55.79L69.38,55.49L69.66,55.2L69.94,54.9L70.22,54.6L70.49,54.31L70.77,54.02L71.04,53.72L71.32,53.43L71.59,53.14L71.87,52.86L72.14,52.57L72.41,52.29L72.69,52L72.96,51.72L73.24,51.44L73.51,51.17L73.79,50.89L74.06,50.62L74.34,50.35L74.62,50.08L74.9,49.81L75.18,49.54L75.46,49.27L75.74,49.01L76.03,48.75L76.31,48.48L76.6,48.22" fill="none" stroke="rgba(255,255,255,0.16)" stroke-width="0.38"/>
      <path d="M62.5,61.7L62.87,61.49L63.24,61.27L63.6,61.05L63.97,60.83L64.32,60.6L64.68,60.38L65.03,60.14L65.38,59.91L65.73,59.67L66.08,59.44L66.42,59.19L66.76,58.95L67.1,58.71L67.43,58.46L67.77,58.21L68.1,57.96L68.43,57.71L68.75,57.46L69.08,57.2L69.4,56.95L69.72,56.69L70.04,56.43L70.35,56.17L70.67,55.91L70.98,55.65L71.29,55.39L71.6,55.13L71.91,54.87L72.22,54.6L72.52,54.34L72.83,54.07L73.13,53.8L73.43,53.54L73.73,53.27L74.03,53L74.33,52.73L74.63,52.46L74.92,52.19L75.22,51.92L75.51,51.65L75.81,51.38L76.1,51.11L76.39,50.84L76.68,50.56L76.97,50.29L77.26,50.01L77.55,49.74L77.84,49.46" fill="none" stroke="rgba(255,255,255,0.16)" stroke-width="0.38"/>
      <path d="M62.5,61.7L62.89,61.52L63.28,61.35L63.67,61.17L64.05,60.99L64.44,60.82L64.83,60.64L65.21,60.46L65.59,60.28L65.98,60.09L66.36,59.91L66.74,59.72L67.11,59.53L67.49,59.34L67.86,59.15L68.24,58.96L68.61,58.76L68.98,58.56L69.35,58.36L69.71,58.15L70.08,57.95L70.44,57.74L70.8,57.52L71.16,57.31L71.51,57.09L71.87,56.87L72.22,56.65L72.57,56.42L72.92,56.19L73.26,55.95L73.6,55.72L73.94,55.48L74.28,55.23L74.61,54.99L74.94,54.74L75.27,54.48L75.6,54.23L75.92,53.97L76.24,53.7L76.55,53.44L76.87,53.17L77.18,52.89L77.49,52.62L77.79,52.34L78.09,52.05L78.39,51.77L78.69,51.48L78.98,51.19L79.27,50.89" fill="none" stroke="rgba(255,255,255,0.16)" stroke-width="0.38"/>
      <path d="M62.5,61.7L62.9,61.55L63.31,61.41L63.72,61.27L64.13,61.14L64.54,61L64.95,60.87L65.36,60.73L65.77,60.59L66.19,60.46L66.6,60.32L67.01,60.18L67.42,60.04L67.83,59.89L68.23,59.75L68.64,59.6L69.05,59.45L69.45,59.29L69.86,59.13L70.26,58.97L70.66,58.81L71.06,58.64L71.46,58.47L71.85,58.29L72.24,58.11L72.63,57.92L73.02,57.73L73.4,57.53L73.78,57.33L74.16,57.12L74.53,56.91L74.9,56.69L75.27,56.47L75.63,56.24L75.99,56L76.34,55.76L76.69,55.52L77.03,55.26L77.37,55.01L77.71,54.74L78.04,54.47L78.37,54.2L78.69,53.92L79,53.63L79.31,53.34L79.62,53.04L79.92,52.74L80.21,52.44L80.5,52.13" fill="none" stroke="rgba(255,255,255,0.16)" stroke-width="0.38"/>
      <path d="M62.5,61.7L62.72,61.63L62.95,61.57L63.18,61.52L63.41,61.46L63.64,61.41L63.88,61.36L64.11,61.31L64.35,61.26L64.58,61.21L64.82,61.16L65.05,61.11L65.29,61.06L65.52,61.02L65.76,60.97L66,60.92L66.24,60.87L66.47,60.82L66.71,60.78L66.95,60.73L67.19,60.68L67.43,60.63L67.67,60.58L67.91,60.53L68.15,60.48L68.39,60.43L68.62,60.37L68.86,60.32L69.1,60.26L69.34,60.21L69.58,60.15L69.82,60.09L70.06,60.04L70.29,59.98L70.53,59.92L70.77,59.85L71.01,59.79L71.24,59.72L71.48,59.66L71.71,59.59L71.95,59.52L72.18,59.45L72.41,59.37L72.65,59.3L72.88,59.22L73.11,59.14L73.34,59.06L73.57,58.98L73.8,58.89L69.62,53.22L69.49,53.4L69.36,53.57L69.23,53.75L69.1,53.93L68.97,54.11L68.84,54.29L68.71,54.48L68.58,54.66L68.45,54.84L68.31,55.02L68.18,55.21L68.05,55.39L67.91,55.58L67.78,55.76L67.64,55.95L67.51,56.13L67.37,56.32L67.23,56.5L67.1,56.69L66.96,56.87L66.82,57.05L66.67,57.24L66.53,57.42L66.39,57.61L66.24,57.79L66.1,57.97L65.95,58.16L65.8,58.34L65.65,58.52L65.5,58.7L65.35,58.88L65.19,59.06L65.04,59.23L64.88,59.41L64.72,59.59L64.56,59.76L64.4,59.93L64.24,60.1L64.07,60.27L63.91,60.44L63.74,60.61L63.57,60.77L63.4,60.94L63.22,61.1L63.05,61.25L62.87,61.41L62.69,61.56L62.5,61.7Z" fill="#7cb342"/>
    </g>
    <path d="M74.45,47.35L75.09,46.71L75.72,46.07L76.36,45.44L77,44.8L77.63,44.16L78.27,43.53L78.9,42.89L79.54,42.25L86.47,49.18L85.83,49.82L85.2,50.46L84.56,51.09L83.93,51.73L83.29,52.37L82.65,53L82.02,53.64L81.38,54.28Z" fill="url(#fer)"/>
    <path d="M83.08 52.58L76.15 45.65" stroke="rgba(20,30,50,0.38)" stroke-width="0.45"/>
    <path d="M84.92 50.74L77.99 43.81" stroke="rgba(20,30,50,0.38)" stroke-width="0.45"/>
    <path d="M79.36,42.64L84.26,38.23L89.11,33.76L93.96,29.29L98.83,24.85L103.73,20.43L108.66,16.04L113.6,11.67L118.56,7.31L121.42,10.17L117.06,15.12L112.69,20.07L108.3,24.99L103.88,29.89L99.43,34.76L94.97,39.61L90.5,44.46L86.08,49.36Z" fill="#8a5a2b"/>
    <circle cx="119.99" cy="8.74" r="1.9" fill="#8a5a2b"/>
    <g clip-path="url(#hcl)">
      <path d="M79.53 42.81L120.53 6.59L121.33 7.39L81.55 44.83Z" fill="rgba(214,164,105,0.95)"/>
      <path d="M86.08 49.36L122.41 8.47L121.6 7.66L84.4 47.68Z" fill="rgba(60,32,10,0.4)"/>
    </g>
    <!-- 물감 하나에 글자 하나 -->
    <g font-family="'Segoe UI','Malgun Gothic',Arial,sans-serif" font-size="14" font-weight="700"
       text-anchor="middle" dominant-baseline="central">
      <text x="27.5" y="35.7" fill="#ffffff">h</text>
      <text x="50.5" y="30.7" fill="#4a2c00">w</text>
      <text x="42.5" y="54.7" fill="#4a2c00">p</text>
    </g>
  </g>
</svg>